<svg xmlns="http://www.w3.org/2000/svg" xmlns:xlink="http://www.w3.org/1999/xlink" viewBox="0 0 650.36 650.36"><defs><style>.cls-1{fill:url(#Безымянный_градиент_39);}.cls-2{fill:url(#Безымянный_градиент_23);}</style><linearGradient id="Безымянный_градиент_39" x1="-11.07" y1="-7.64" x2="686.77" y2="672.96" gradientUnits="userSpaceOnUse"><stop offset="0"/><stop offset="0.37" stop-color="#232323"/><stop offset="1"/></linearGradient><linearGradient id="Безымянный_градиент_23" x1="132.03" y1="132.03" x2="529.22" y2="529.22" gradientUnits="userSpaceOnUse"><stop offset="0" stop-color="#c3c3c3"/><stop offset="0.35" stop-color="#fff"/><stop offset="1" stop-color="#979797"/></linearGradient></defs><g id="Слой_2" data-name="Слой 2"><g id="Слой_1-2" data-name="Слой 1"><circle class="cls-1" cx="330.18" cy="325.18" r="320.18"/><path class="cls-2" d="M555.11,95.24A325.18,325.18,0,0,0,95.24,555.11,325.18,325.18,0,1,0,555.11,95.24Zm-36.85-19A349.93,349.93,0,0,1,419,123q-5.44-10.65-11.46-21.16c-19.19-33.38-43.18-65.44-68.3-91.47A313.57,313.57,0,0,1,518.26,76.24ZM401,127.65a339.16,339.16,0,0,1-76,8.78h-.67a338.86,338.86,0,0,1-75.7-8.56c26.74-51.38,57.91-87.62,76.24-106.49C343.13,40.21,374.25,76.38,401,127.65Zm-90.5-117.3c-25.17,26.09-49.19,58.23-68.41,91.71q-6,10.5-11.45,21.18a350,350,0,0,1-99.34-46.36A313.59,313.59,0,0,1,310.47,10.35ZM131.69,573.8A355.59,355.59,0,0,1,228.32,529q6.5,13.08,13.87,25.91a481.22,481.22,0,0,0,61.95,84.76A313.57,313.57,0,0,1,131.69,573.8Zm193.15,61.5c-18.85-19.41-51.34-57.24-78.59-111A343.92,343.92,0,0,1,325,515.08h.11a343.65,343.65,0,0,1,78.4,9.07C376.23,578,343.72,615.87,324.84,635.3Zm20.65,4.38a481.35,481.35,0,0,0,62.13-85.06q7.33-12.76,13.79-25.78a355.65,355.65,0,0,1,97.19,45A313.53,313.53,0,0,1,345.49,639.68ZM612.57,309.43s-1.4-11.61-14.75-18.65c-.63-.33-2-1-2.57-.33a1.83,1.83,0,0,0-.28,1.16V413H538.81a86.63,86.63,0,0,1-24.61-5.73V291.61a1.83,1.83,0,0,0-.28-1.16c-.59-.7-1.94,0-2.57.33-13.36,7-14.76,18.65-14.76,18.65a20.9,20.9,0,0,0-.15,2.49v84.95a66.17,66.17,0,0,1-5.1-4.54c-1-1-1.74-1.79-2.2-2.29-12.69-13.75-20.45-33-25.82-49.39l-9.7,25.55c5.4,12.63,12.51,25.44,22.28,36,.7.76,1.55,1.67,2.79,2.9,15.21,15,35,23.7,58.94,25.78l.39,0h84.06A316.34,316.34,0,0,1,529.39,565L532,561.2a372.89,372.89,0,0,0-102.83-48.84,447.92,447.92,0,0,0,32.55-104.73,125.79,125.79,0,0,1-11.62-17c-1.9,4-3.82,7.83-5.79,11.5a434.11,434.11,0,0,1-32.86,105.41,361.29,361.29,0,0,0-86.38-10.47H325a361.78,361.78,0,0,0-86.72,10.58,434.48,434.48,0,0,1-33.19-107.14c-1.89-3.73-3.67-7.54-5.37-11.44a121.67,121.67,0,0,1-11.64,19.15A448.46,448.46,0,0,0,220.54,512.5a372.63,372.63,0,0,0-103.19,49.27l.25.37A316.35,316.35,0,0,1,28.28,431h83.29c21.86,0,43.09-9.18,59.76-25.85l.26-.26c5.39-5.37,15.42-15.38,37.69-76.59,2.05-5.63,4-11,5.81-16.23,11.47-32.37,19.76-55.75,39.37-76q2-2.08,4-3.88V369.92a21.74,21.74,0,0,0,.16,2.49S260,384,273.34,391.06c.63.33,2,1,2.57.32a1.78,1.78,0,0,0,.28-1.15V219.86C295.73,210,315.59,210,325,210s29.05,0,48.49,9.7V390.23a1.78,1.78,0,0,0,.28,1.15c.59.7,1.94,0,2.57-.32,13.36-7,14.76-18.65,14.76-18.65a21,21,0,0,0,.15-2.49v-138c1.4,1.28,2.82,2.66,4.29,4.17,14.33,14.76,27.52,39.61,39.31,74l9.7-25.54c-10.89-27-23-47.48-36.1-61a104.41,104.41,0,0,0-11.81-10.57C368.94,192,338.14,192,325,192s-43.94,0-71.63,20.93a103.13,103.13,0,0,0-11.81,10.57c-22.35,23.05-31.65,49.28-43.42,82.49-1.83,5.18-3.73,10.53-5.76,16.1-20.89,57.44-29.71,66.24-33.48,70l-.28.28c-13.46,13.46-29.73,20.58-47,20.58h-4.24V301.44a4.36,4.36,0,0,0-.29-1.71c-1.65-4-15.28-4.05-17.1.17a4.86,4.86,0,0,0-.35,1.54c0,40.65,0,72.14,0,111.51H22.45a315.72,315.72,0,0,1-.34-174.39H40.23V340.37a21.74,21.74,0,0,0,.16,2.49s1.4,11.61,14.75,18.65c.63.33,2,1,2.57.32a1.78,1.78,0,0,0,.28-1.15V238.56h53.58a62,62,0,0,1,27.19,6.29V360.68a1.78,1.78,0,0,0,.28,1.15c.59.7,1.94,0,2.57-.32,13.36-7,14.76-18.65,14.76-18.65a21,21,0,0,0,.15-2.49V257.15c.7.65,1.4,1.31,2.08,2l.28.28c3.34,3.33,10.67,10.64,26.89,52.42l9.38-24.7c-12.72-29.66-19.48-36.4-23.56-40.47l-.26-.26a92.69,92.69,0,0,0-14.81-12v-.25h-.38a81.71,81.71,0,0,0-44.57-13.55H27.87a316.15,316.15,0,0,1,90.52-133l-1.11,1.58a367.43,367.43,0,0,0,105.35,50.55,449.43,449.43,0,0,0-34,105.73,126.45,126.45,0,0,1,11.06,18.4c2-4.62,4.13-9.12,6.42-13.51a435.89,435.89,0,0,1,34.27-105.84,356.85,356.85,0,0,0,83.91,10h.7a356.34,356.34,0,0,0,84.18-10.24A435.9,435.9,0,0,1,443.29,248.8q3.48,6.36,6.83,13.41a128.77,128.77,0,0,1,11-16.28,449.7,449.7,0,0,0-34.22-106.57A367.09,367.09,0,0,0,532.11,88.53l-1.6-2.27a316.31,316.31,0,0,1,92,134.3H538.41l-.78,0c-23.9,2.08-43.73,10.76-58.94,25.78-1.33,1.32-2.24,2.3-2.78,2.89-19.44,21.08-28.33,50.9-34.22,70.64-.4,1.33-.78,2.61-1.15,3.83-13.18,43.69-28.33,74.55-45,91.73a87.77,87.77,0,0,1-9.75,8.75c-18.26,13.8-38.88,16.58-52.22,17.14,0-44.05,0-161.3,0-185.82a4.21,4.21,0,0,0-.29-1.71c-1.65-4-15.28-4-17.09.17a4.65,4.65,0,0,0-.35,1.54V441.32c-13.35-.62-33.63-3.52-51.62-17.12a84.25,84.25,0,0,1-9.74-8.74c-19.53-20.14-27.84-43.42-39.24-75.58l-9.8,25.83c9,24,18.51,44.12,36.12,62.29a103.13,103.13,0,0,0,11.81,10.57C281,459.49,311.83,459.49,325,459.49s43.95,0,71.64-20.92A102.72,102.72,0,0,0,408.44,428c18.71-19.27,35.31-52.6,49.34-99.07l1.16-3.89c5.41-18.14,13.59-45.56,30.19-63.57.5-.53,1.17-1.27,2.21-2.29,12.07-11.92,28-18.86,47.47-20.62h6.82V350.85a4.39,4.39,0,0,0,.29,1.71c1.65,4,15.29,4,17.1-.17a4.92,4.92,0,0,0,.35-1.54c0-40.92,0-72.56,0-112.29h64.89A315.72,315.72,0,0,1,627.91,413H612.73v-101A21.62,21.62,0,0,0,612.57,309.43Z"/></g></g></svg>